<?xml version="1.0" standalone="no"?>
<!DOCTYPE svg PUBLIC "-//W3C//DTD SVG 20010904//EN"
 "http://www.w3.org/TR/2001/REC-SVG-20010904/DTD/svg10.dtd">
<svg version="1.0" xmlns="http://www.w3.org/2000/svg"
 width="900.000000pt" height="900.000000pt" viewBox="0 0 900.000000 900.000000"
 preserveAspectRatio="xMidYMid meet">

<g transform="translate(0.000000,900.000000) scale(0.100000,-0.100000)"
fill="#000000" stroke="none">
<path d="M4438 6407 c-134 -38 -221 -155 -221 -297 -1 -62 4 -85 27 -132 32
-68 100 -132 166 -155 l47 -17 -52 -205 c-197 -775 -378 -1181 -525 -1181
-116 0 -371 311 -639 778 l-64 112 41 44 c71 77 79 176 21 256 -73 100 -232
106 -311 12 -106 -126 -21 -321 142 -326 57 -1 52 12 74 -192 34 -306 10 -569
-66 -717 -47 -93 -138 -159 -235 -172 -142 -18 -348 86 -549 278 l-87 83 36
47 c93 122 87 280 -14 391 -90 99 -214 131 -333 86 -210 -80 -269 -346 -111
-505 93 -92 243 -114 363 -53 14 7 26 8 31 2 5 -5 243 -361 530 -791 287 -431
523 -783 525 -783 2 0 28 5 57 10 230 44 501 81 704 95 50 4 109 8 132 10 41
3 44 1 130 -87 48 -49 89 -93 91 -97 2 -5 -46 -9 -105 -10 -59 -1 -133 -4
-163 -6 -230 -20 -313 -29 -440 -46 -80 -11 -167 -24 -195 -30 -27 -5 -60 -12
-72 -15 -22 -4 -19 -10 44 -104 36 -55 71 -100 77 -100 6 0 38 5 71 10 535 89
1376 86 1955 -6 l37 -6 59 92 c32 50 58 95 57 98 -5 19 -424 81 -648 97 -49 4
-101 8 -114 10 -13 2 -79 5 -147 6 -68 0 -124 2 -124 4 0 1 38 40 85 86 47 45
85 88 85 95 0 10 13 12 48 10 26 -3 90 -7 142 -11 225 -16 625 -72 754 -106
21 -6 42 -7 46 -2 10 11 644 991 943 1458 39 61 74 114 77 118 4 4 29 -2 56
-14 101 -43 235 -21 320 54 126 111 139 298 30 432 -75 91 -223 129 -337 86
-199 -75 -266 -328 -128 -485 l40 -46 -43 -46 c-60 -64 -192 -174 -261 -218
-122 -78 -249 -108 -340 -82 -147 43 -231 175 -262 412 -19 142 -19 247 0 436
22 225 18 215 75 223 86 12 148 68 171 157 15 53 4 103 -33 158 -57 84 -197
106 -275 44 -21 -17 -48 -48 -60 -70 -45 -78 -19 -201 53 -247 19 -12 34 -25
34 -29 0 -8 -134 -238 -210 -358 -200 -320 -394 -530 -490 -530 -156 0 -373
527 -564 1372 -3 11 9 21 39 33 60 22 131 88 162 149 37 71 39 186 4 263 -27
61 -94 126 -156 154 -57 25 -148 32 -207 16z m192 -3197 c71 -72 130 -133 130
-135 0 -2 -59 -63 -131 -136 l-131 -131 -134 133 -134 134 132 132 c73 73 134
133 135 133 2 0 61 -59 133 -130z"/>
</g>
</svg>
